<?xml version="1.0" encoding="UTF-8" standalone="no"?>
<!DOCTYPE svg PUBLIC "-//W3C//DTD SVG 1.1//EN" "http://www.w3.org/Graphics/SVG/1.1/DTD/svg11.dtd">
<svg width="100%" height="100%" viewBox="0 0 421 421" version="1.1" xmlns="http://www.w3.org/2000/svg" xmlns:xlink="http://www.w3.org/1999/xlink" xml:space="preserve" xmlns:serif="http://www.serif.com/" style="fill-rule:evenodd;clip-rule:evenodd;stroke-linejoin:round;stroke-miterlimit:2;">
    <g transform="matrix(1,0,0,1,-45.7574,-45.7573)">
        <g transform="matrix(6.80328e-17,1.11106,-1.11106,6.80328e-17,584.57,-24.0759)">
            <path d="M276.84,121.802L438.385,444.892C442.675,453.473 442.217,463.664 437.173,471.825C432.129,479.986 423.219,484.954 413.625,484.954L90.535,484.954C80.941,484.954 72.031,479.986 66.987,471.825C61.943,463.664 61.485,453.473 65.775,444.892L227.321,121.802C232.01,112.424 241.595,106.5 252.08,106.5C262.565,106.5 272.15,112.424 276.84,121.802Z" style="fill:white;"/>
        </g>
    </g>
</svg>
