<?xml version="1.0" encoding="UTF-8" standalone="no"?>
<!DOCTYPE svg PUBLIC "-//W3C//DTD SVG 1.1//EN" "http://www.w3.org/Graphics/SVG/1.1/DTD/svg11.dtd">
<svg width="100%" height="100%" viewBox="0 0 125 54" version="1.1" xmlns="http://www.w3.org/2000/svg" xmlns:xlink="http://www.w3.org/1999/xlink" xml:space="preserve" xmlns:serif="http://www.serif.com/" style="fill-rule:evenodd;clip-rule:evenodd;stroke-linejoin:round;stroke-miterlimit:2;">
    <g transform="matrix(0.48,0,0,0.48,0,0)">
        <g transform="matrix(1,0,0,1,-389.182,-292.228)">
            <rect id="Artboard1" x="389.182" y="292.228" width="259.342" height="111.979" style="fill:none;"/>
            <g id="Artboard11" serif:id="Artboard1">
                <g transform="matrix(1,0,0,1,-1.05317,-32.5028)">
                    <g id="Deisgn_4_On_White">
                        <g>
                            <g transform="matrix(1,0,0,1,13.622,-6.37795)">
                                <path d="M386.631,437.334L386.631,412.368L386.664,412.368L398.598,429.334L410.731,412.368L410.798,412.368L410.798,437.334L407.331,437.334L407.331,422.334L398.598,434.734L398.531,434.734L389.998,422.868L389.998,437.334L386.631,437.334Z" style="fill:url(#_Linear1);fill-rule:nonzero;"/>
                                <path d="M451.298,413.168L467.131,413.168L467.131,416.534L454.764,416.534L454.764,423.501L465.798,423.501L465.798,426.868L454.764,426.868L454.764,433.968L467.598,433.968L467.598,437.334L451.298,437.334L451.298,413.168Z" style="fill:url(#_Linear2);fill-rule:nonzero;"/>
                                <path d="M506.798,437.334L506.798,413.168L513.498,413.168C515.898,413.168 517.931,413.529 519.598,414.251C521.264,414.973 522.62,415.94 523.664,417.151C524.709,418.362 525.47,419.701 525.948,421.168C526.425,422.634 526.664,424.101 526.664,425.568C526.664,427.368 526.348,428.995 525.714,430.451C525.081,431.907 524.203,433.145 523.081,434.168C521.959,435.19 520.675,435.973 519.231,436.518C517.786,437.062 516.264,437.334 514.664,437.334L506.798,437.334ZM510.264,433.968L513.998,433.968C515.753,433.968 517.309,433.634 518.664,432.968C520.02,432.301 521.092,431.323 521.881,430.034C522.67,428.745 523.064,427.179 523.064,425.334C523.064,423.823 522.814,422.518 522.314,421.418C521.814,420.318 521.153,419.407 520.331,418.684C519.509,417.962 518.586,417.423 517.564,417.068C516.542,416.712 515.498,416.534 514.431,416.534L510.264,416.534L510.264,433.968Z" style="fill:url(#_Linear3);fill-rule:nonzero;"/>
                                <rect x="565.664" y="413.168" width="3.467" height="24.167" style="fill:url(#_Linear4);fill-rule:nonzero;"/>
                                <path d="M607.164,437.334L617.798,412.168L617.998,412.168L628.631,437.334L624.598,437.334L622.231,431.268L613.131,431.268L610.631,437.334L607.164,437.334ZM614.331,428.268L621.031,428.268L617.764,419.934L614.331,428.268Z" style="fill:url(#_Linear5);fill-rule:nonzero;"/>
                            </g>
                            <g transform="matrix(1,0,0,1,0,14)">
                                <path d="M606.945,375.566L607.019,318.634L641.621,318.634L641.621,324.509L632.823,320.812L623.507,320.812L623.507,346.46L628.756,346.46L637.407,344.398L637.407,349.796L628.756,348.425L623.507,348.425L623.507,373.751L633.932,373.751L643.987,369.907L643.987,375.566L606.945,375.566Z" style="fill:white;"/>
                            </g>
                            <g transform="matrix(1,0,0,1,0,14)">
                                <path d="M553.316,375.566L553.171,318.634L579.475,318.634C586.577,318.634 592.234,321.621 594.905,324.413C597.577,327.205 599.526,331.586 599.526,335.388C599.526,339.189 597.962,344.405 594.905,347.221C591.849,350.037 585.458,352.284 581.186,352.284L569.778,352.284L569.778,350.984C569.778,350.984 570.318,351.09 574.999,350.984C577.612,350.925 579.287,348.778 580.186,347.1C581.269,345.078 582.359,341.782 582.359,335.388C582.359,329.372 581.269,325.809 580.186,324.413C579.112,323.028 576.751,321.236 574.999,321.236L569.778,321.236L569.778,375.566L553.316,375.566Z" style="fill:white;"/>
                            </g>
                            <g transform="matrix(1,0,0,1,0,14)">
                                <path d="M498.088,375.566L522.339,317.355L547.848,375.566L531.286,375.566L516.129,337.475L506.813,360.691L525.23,360.691L526.094,362.812L506.073,362.812L503.559,375.566L498.088,375.566Z" style="fill:white;"/>
                            </g>
                            <g transform="matrix(1,0,0,1,0,14)">
                                <path d="M462.69,318.634L446.645,318.708L446.645,375.566L462.69,375.566L462.69,346.73L466.978,346.73L480.287,375.566L497.144,375.566L483.91,345.621L468.679,345.621L494.63,318.634L487.902,318.634C487.902,318.634 482.936,325.522 480.287,328.837C476.848,333.141 467.269,344.459 467.269,344.459L462.69,344.459L462.69,318.634Z" style="fill:white;"/>
                            </g>
                            <g transform="matrix(1,0,0,1,0,14)">
                                <path d="M398.227,330.769C398.886,326.977 400.328,325.357 402.38,323.441C403.237,322.641 406.78,319.316 412.242,317.983C415.312,317.234 416.739,317.363 419.002,317.363C421.431,317.363 424.276,317.375 426.817,317.983C432.788,319.412 438.415,322.389 438.415,322.389L438.415,330.769C438.415,330.769 429.661,323.231 427.561,322.201C426.108,321.488 424.584,320.588 423.158,320.154C421.821,319.747 420.393,319.462 419.002,319.596C417.183,319.772 413.906,320.216 412.242,321.209C410.693,322.132 409.554,324.196 409.017,325.55C408.551,326.722 408.633,328.132 409.017,329.334C409.409,330.564 410.241,332.052 411.373,332.931C413.451,334.543 418.094,337.015 421.483,339.009C424.998,341.077 430.174,343.084 432.461,345.335C435.329,348.158 435.546,347.125 437.38,350.947C439.451,355.261 438.625,360.195 438.415,363.136C438.275,365.105 437.113,367.064 436.121,368.594C435.174,370.054 433.906,371.347 432.461,372.315C428.765,374.793 428.715,375.666 421.483,376.807C417.398,377.451 411.898,376.869 407.959,376.223C404.463,375.649 397.852,372.929 397.852,372.929L397.852,365.206C397.852,365.206 401.574,369.201 403.683,370.696C405.765,372.172 408.008,373.645 410.505,374.176C413.234,374.756 417.638,374.486 420.057,374.176C421.809,373.951 423.768,373.132 425.018,372.315C426.124,371.593 427.158,370.534 427.561,369.276C427.985,367.953 428.227,365.868 427.561,364.376C426.827,362.733 424.956,360.702 423.158,359.415C420.863,357.771 416.861,356.246 413.792,354.515C410.546,352.683 406.197,350.677 403.683,348.425C401.464,346.438 399.587,343.85 398.708,341.005C397.799,338.062 397.637,334.162 398.227,330.769Z" style="fill:white;"/>
                            </g>
                        </g>
                    </g>
                </g>
            </g>
        </g>
    </g>
    <defs>
        <linearGradient id="_Linear1" x1="0" y1="0" x2="1" y2="0" gradientUnits="userSpaceOnUse" gradientTransform="matrix(2e-06,0,0,2e-06,-110.597,-250.555)"><stop offset="0" style="stop-color:white;stop-opacity:1"/><stop offset="1" style="stop-color:rgb(166,166,166);stop-opacity:1"/></linearGradient>
        <linearGradient id="_Linear2" x1="0" y1="0" x2="1" y2="0" gradientUnits="userSpaceOnUse" gradientTransform="matrix(2e-06,0,0,2e-06,-110.597,-250.555)"><stop offset="0" style="stop-color:white;stop-opacity:1"/><stop offset="1" style="stop-color:rgb(166,166,166);stop-opacity:1"/></linearGradient>
        <linearGradient id="_Linear3" x1="0" y1="0" x2="1" y2="0" gradientUnits="userSpaceOnUse" gradientTransform="matrix(2e-06,0,0,2e-06,-110.597,-250.555)"><stop offset="0" style="stop-color:white;stop-opacity:1"/><stop offset="1" style="stop-color:rgb(166,166,166);stop-opacity:1"/></linearGradient>
        <linearGradient id="_Linear4" x1="0" y1="0" x2="1" y2="0" gradientUnits="userSpaceOnUse" gradientTransform="matrix(2e-06,0,0,2e-06,-110.597,-250.555)"><stop offset="0" style="stop-color:white;stop-opacity:1"/><stop offset="1" style="stop-color:rgb(166,166,166);stop-opacity:1"/></linearGradient>
        <linearGradient id="_Linear5" x1="0" y1="0" x2="1" y2="0" gradientUnits="userSpaceOnUse" gradientTransform="matrix(2e-06,0,0,2e-06,-110.597,-250.555)"><stop offset="0" style="stop-color:white;stop-opacity:1"/><stop offset="1" style="stop-color:rgb(166,166,166);stop-opacity:1"/></linearGradient>
    </defs>
</svg>
